<mxfile host="app.diagrams.net" agent="Mozilla/5.0 (Windows NT 10.0; Win64; x64) AppleWebKit/537.36 (KHTML, like Gecko) Chrome/133.0.0.0 Safari/537.36" version="26.0.16">
  <diagram name="第 1 页" id="TiLxs6NhTB3eNvwkH9vR">
    <mxGraphModel dx="2261" dy="746" grid="1" gridSize="10" guides="1" tooltips="1" connect="1" arrows="1" fold="1" page="1" pageScale="1" pageWidth="827" pageHeight="1169" math="0" shadow="0">
      <root>
        <mxCell id="0" />
        <mxCell id="1" parent="0" />
        <mxCell id="ZR1nw9gsdPyeDd0E2ywS-8" style="edgeStyle=orthogonalEdgeStyle;rounded=0;orthogonalLoop=1;jettySize=auto;html=1;entryX=0.5;entryY=0;entryDx=0;entryDy=0;" parent="1" source="ZR1nw9gsdPyeDd0E2ywS-1" target="ZR1nw9gsdPyeDd0E2ywS-2" edge="1">
          <mxGeometry relative="1" as="geometry" />
        </mxCell>
        <mxCell id="ZR1nw9gsdPyeDd0E2ywS-15" value="传入知识库标识" style="edgeLabel;html=1;align=center;verticalAlign=middle;resizable=0;points=[];fontSize=20;" parent="ZR1nw9gsdPyeDd0E2ywS-8" vertex="1" connectable="0">
          <mxGeometry x="-0.4237" y="2" relative="1" as="geometry">
            <mxPoint x="-2" y="16" as="offset" />
          </mxGeometry>
        </mxCell>
        <mxCell id="ZR1nw9gsdPyeDd0E2ywS-1" value="客户提问" style="rounded=1;whiteSpace=wrap;html=1;fillColor=#dae8fc;strokeColor=#6c8ebf;" parent="1" vertex="1">
          <mxGeometry x="350" y="80" width="120" height="60" as="geometry" />
        </mxCell>
        <mxCell id="ZR1nw9gsdPyeDd0E2ywS-9" style="edgeStyle=orthogonalEdgeStyle;rounded=0;orthogonalLoop=1;jettySize=auto;html=1;entryX=0.5;entryY=0;entryDx=0;entryDy=0;curved=1;" parent="1" source="ZR1nw9gsdPyeDd0E2ywS-2" target="ZR1nw9gsdPyeDd0E2ywS-3" edge="1">
          <mxGeometry relative="1" as="geometry" />
        </mxCell>
        <mxCell id="ZR1nw9gsdPyeDd0E2ywS-18" value="命中公有库、私有库" style="edgeLabel;html=1;align=center;verticalAlign=middle;resizable=0;points=[];fontSize=20;" parent="ZR1nw9gsdPyeDd0E2ywS-9" vertex="1" connectable="0">
          <mxGeometry x="0.028" y="15" relative="1" as="geometry">
            <mxPoint x="-15" y="22" as="offset" />
          </mxGeometry>
        </mxCell>
        <mxCell id="ZR1nw9gsdPyeDd0E2ywS-10" style="edgeStyle=orthogonalEdgeStyle;rounded=0;orthogonalLoop=1;jettySize=auto;html=1;curved=1;" parent="1" source="ZR1nw9gsdPyeDd0E2ywS-2" target="ZR1nw9gsdPyeDd0E2ywS-6" edge="1">
          <mxGeometry relative="1" as="geometry" />
        </mxCell>
        <mxCell id="ZR1nw9gsdPyeDd0E2ywS-2" value="阿里百炼-知识库检索&lt;br&gt;（Deepseek）" style="rhombus;whiteSpace=wrap;html=1;fillColor=#dae8fc;strokeColor=#6c8ebf;" parent="1" vertex="1">
          <mxGeometry x="335" y="258" width="150" height="150" as="geometry" />
        </mxCell>
        <mxCell id="yQJPLgPbVE0vV7vElhEY-5" style="edgeStyle=orthogonalEdgeStyle;rounded=0;orthogonalLoop=1;jettySize=auto;html=1;" edge="1" parent="1" source="ZR1nw9gsdPyeDd0E2ywS-3" target="yQJPLgPbVE0vV7vElhEY-2">
          <mxGeometry relative="1" as="geometry" />
        </mxCell>
        <mxCell id="ZR1nw9gsdPyeDd0E2ywS-3" value="返回意图、答案、个性化标识" style="rounded=1;whiteSpace=wrap;html=1;fillColor=#b0e3e6;strokeColor=#0e8088;" parent="1" vertex="1">
          <mxGeometry x="200" y="472" width="120" height="60" as="geometry" />
        </mxCell>
        <mxCell id="yQJPLgPbVE0vV7vElhEY-3" style="edgeStyle=orthogonalEdgeStyle;rounded=0;orthogonalLoop=1;jettySize=auto;html=1;curved=1;" edge="1" parent="1" source="ZR1nw9gsdPyeDd0E2ywS-4" target="ZR1nw9gsdPyeDd0E2ywS-5">
          <mxGeometry relative="1" as="geometry" />
        </mxCell>
        <mxCell id="ZR1nw9gsdPyeDd0E2ywS-4" value="业务系统匹配意图对应的答案" style="rounded=1;whiteSpace=wrap;html=1;fillColor=#b0e3e6;strokeColor=#0e8088;" parent="1" vertex="1">
          <mxGeometry x="320" y="690" width="120" height="60" as="geometry" />
        </mxCell>
        <mxCell id="ZR1nw9gsdPyeDd0E2ywS-5" value="返回答案" style="rounded=1;whiteSpace=wrap;html=1;fillColor=#fad9d5;strokeColor=#ae4132;" parent="1" vertex="1">
          <mxGeometry x="320" y="860" width="120" height="60" as="geometry" />
        </mxCell>
        <mxCell id="yQJPLgPbVE0vV7vElhEY-4" style="edgeStyle=orthogonalEdgeStyle;rounded=0;orthogonalLoop=1;jettySize=auto;html=1;entryX=1;entryY=0.5;entryDx=0;entryDy=0;curved=1;" edge="1" parent="1" source="ZR1nw9gsdPyeDd0E2ywS-6" target="ZR1nw9gsdPyeDd0E2ywS-5">
          <mxGeometry relative="1" as="geometry" />
        </mxCell>
        <mxCell id="ZR1nw9gsdPyeDd0E2ywS-6" value="调用大模型基于现有知识库语料总结答案" style="rounded=1;whiteSpace=wrap;html=1;fillColor=#e1d5e7;strokeColor=#9673a6;" parent="1" vertex="1">
          <mxGeometry x="496" y="516" width="120" height="60" as="geometry" />
        </mxCell>
        <mxCell id="ZR1nw9gsdPyeDd0E2ywS-14" value="&lt;h1 style=&quot;margin-top: 0px;&quot;&gt;前置条件&lt;/h1&gt;&lt;p&gt;1.导入公有库数据到云平台&lt;/p&gt;&lt;p&gt;2.导入私有库数据到云平台&lt;/p&gt;&lt;p&gt;上传知识库后会生成唯一标识，使用唯一标识来做指定知识库检索&lt;/p&gt;" style="text;html=1;whiteSpace=wrap;overflow=hidden;rounded=0;fillColor=#fff2cc;strokeColor=#d6b656;" parent="1" vertex="1">
          <mxGeometry x="10" y="150" width="180" height="160" as="geometry" />
        </mxCell>
        <mxCell id="ZR1nw9gsdPyeDd0E2ywS-19" value="命中其他知识资料" style="edgeLabel;html=1;align=center;verticalAlign=middle;resizable=0;points=[];fontSize=20;" parent="1" vertex="1" connectable="0">
          <mxGeometry x="540" y="390" as="geometry" />
        </mxCell>
        <mxCell id="yQJPLgPbVE0vV7vElhEY-1" value="&lt;h1 style=&quot;margin-top: 0px;&quot;&gt;返回数据结构&lt;/h1&gt;&lt;p&gt;{&lt;/p&gt;&lt;p&gt;&lt;span style=&quot;white-space: pre;&quot;&gt;&#x9;&lt;/span&gt;&quot;intent&quot;:&quot;忘记密码&quot;,&lt;br&gt;&lt;/p&gt;&lt;p&gt;&lt;span style=&quot;white-space: pre;&quot;&gt;&#x9;&lt;/span&gt;&quot;answer&quot;:&quot;xxx&quot;,&lt;br&gt;&lt;/p&gt;&lt;p&gt;&lt;span style=&quot;white-space: pre;&quot;&gt;&#x9;&lt;/span&gt;&quot;individuation&quot;:&quot;true/false&quot;&lt;/p&gt;&lt;p&gt;}&lt;/p&gt;" style="text;html=1;whiteSpace=wrap;overflow=hidden;rounded=0;fillColor=#fff2cc;strokeColor=#d6b656;" vertex="1" parent="1">
          <mxGeometry x="-60" y="430" width="180" height="178" as="geometry" />
        </mxCell>
        <mxCell id="yQJPLgPbVE0vV7vElhEY-6" style="edgeStyle=orthogonalEdgeStyle;rounded=0;orthogonalLoop=1;jettySize=auto;html=1;curved=1;" edge="1" parent="1" source="yQJPLgPbVE0vV7vElhEY-2" target="ZR1nw9gsdPyeDd0E2ywS-4">
          <mxGeometry relative="1" as="geometry" />
        </mxCell>
        <mxCell id="yQJPLgPbVE0vV7vElhEY-7" value="是" style="edgeLabel;html=1;align=center;verticalAlign=middle;resizable=0;points=[];fontSize=20;" vertex="1" connectable="0" parent="yQJPLgPbVE0vV7vElhEY-6">
          <mxGeometry x="-0.3766" y="-6" relative="1" as="geometry">
            <mxPoint x="2" y="8" as="offset" />
          </mxGeometry>
        </mxCell>
        <mxCell id="yQJPLgPbVE0vV7vElhEY-11" value="否" style="edgeStyle=orthogonalEdgeStyle;rounded=0;orthogonalLoop=1;jettySize=auto;html=1;curved=1;fontSize=20;" edge="1" parent="1" source="yQJPLgPbVE0vV7vElhEY-2" target="yQJPLgPbVE0vV7vElhEY-10">
          <mxGeometry x="0.3056" y="10" relative="1" as="geometry">
            <mxPoint as="offset" />
          </mxGeometry>
        </mxCell>
        <mxCell id="yQJPLgPbVE0vV7vElhEY-2" value="是否个性化" style="rhombus;whiteSpace=wrap;html=1;fillColor=#dae8fc;strokeColor=#6c8ebf;" vertex="1" parent="1">
          <mxGeometry x="220" y="576" width="80" height="80" as="geometry" />
        </mxCell>
        <mxCell id="yQJPLgPbVE0vV7vElhEY-12" style="edgeStyle=orthogonalEdgeStyle;rounded=0;orthogonalLoop=1;jettySize=auto;html=1;entryX=0;entryY=0.5;entryDx=0;entryDy=0;curved=1;" edge="1" parent="1" source="yQJPLgPbVE0vV7vElhEY-10" target="ZR1nw9gsdPyeDd0E2ywS-5">
          <mxGeometry relative="1" as="geometry" />
        </mxCell>
        <mxCell id="yQJPLgPbVE0vV7vElhEY-10" value="返回大模型总结答案" style="rounded=1;whiteSpace=wrap;html=1;fillColor=#e1d5e7;strokeColor=#9673a6;" vertex="1" parent="1">
          <mxGeometry x="90" y="690" width="120" height="60" as="geometry" />
        </mxCell>
      </root>
    </mxGraphModel>
  </diagram>
</mxfile>
